<svg xmlns="http://www.w3.org/2000/svg" version="1.1" xmlns:xlink="http://www.w3.org/1999/xlink" xmlns:svgjs="http://svgjs.com/svgjs" width="1440" height="560" preserveAspectRatio="none" viewBox="0 0 1440 560"><g mask="url(&quot;#SvgjsMask1000&quot;)" fill="none"><rect width="1440" height="560" x="0" y="0" fill="#0e2a47"></rect><path d="M881.3999278910753 457.6062579929577L962.8368476496453 400.58351288942777 905.8141025461152 319.14659313085787 824.3771827875454 376.1693382343878z" fill="rgba(28, 83, 142, 0.4)" class="triangle-float1"></path><path d="M892.04,626.669C935.737,624.951,966.386,589.355,988.953,551.897C1012.535,512.753,1032.56,467.43,1012.798,426.225C990.721,380.193,943.09,350.329,892.04,349.827C840.168,349.317,791.335,377.945,767.102,423.812C744.243,467.079,755.3,518.411,780.961,560.077C805.225,599.474,845.806,628.487,892.04,626.669" fill="rgba(28, 83, 142, 0.4)" class="triangle-float2"></path><path d="M846.8092268065876 381.5973838418938L1015.4430477947453 402.46616716824315 959.8001185963226 264.7450846236536z" fill="rgba(28, 83, 142, 0.4)" class="triangle-float1"></path><path d="M1106.569,242.428C1156.703,241.787,1193.597,198.499,1214.764,153.048C1232.693,114.551,1224.276,71.659,1203.295,34.737C1182.002,-2.735,1149.519,-33.779,1106.569,-37.354C1056.774,-41.499,1002.495,-27.202,977.255,15.922C951.829,59.364,968.518,112.163,993.475,155.877C1018.701,200.062,1055.694,243.078,1106.569,242.428" fill="rgba(28, 83, 142, 0.4)" class="triangle-float2"></path><path d="M551.564,434.896C573.811,434.106,588.466,414.838,600.157,395.894C612.736,375.512,626.156,352.342,615.859,330.718C604.475,306.811,578.026,292.898,551.564,293.851C526.522,294.753,506.379,312.845,494.821,335.078C484.19,355.529,485.215,379.531,496.606,399.569C508.141,419.86,528.238,435.724,551.564,434.896" fill="rgba(28, 83, 142, 0.4)" class="triangle-float3"></path><path d="M526.198,149.79C553.731,148.966,577.451,132.059,591.063,108.112C604.504,84.466,606.823,55.52,593.148,32.009C579.543,8.618,553.247,-2.636,526.198,-3.412C497.51,-4.235,467.414,3.601,452.249,27.967C436.341,53.526,438.616,86.474,454.238,112.209C469.288,137.003,497.207,150.658,526.198,149.79" fill="rgba(28, 83, 142, 0.4)" class="triangle-float3"></path></g><defs><mask id="SvgjsMask1000"><rect width="1440" height="560" fill="#ffffff"></rect></mask><style>
            @keyframes float1 {
                0%{transform: translate(0, 0)}
                50%{transform: translate(-10px, 0)}
                100%{transform: translate(0, 0)}
            }

            .triangle-float1 {
                animation: float1 5s infinite;
            }

            @keyframes float2 {
                0%{transform: translate(0, 0)}
                50%{transform: translate(-5px, -5px)}
                100%{transform: translate(0, 0)}
            }

            .triangle-float2 {
                animation: float2 4s infinite;
            }

            @keyframes float3 {
                0%{transform: translate(0, 0)}
                50%{transform: translate(0, -10px)}
                100%{transform: translate(0, 0)}
            }

            .triangle-float3 {
                animation: float3 6s infinite;
            }
        </style></defs></svg>