<svg xmlns="http://www.w3.org/2000/svg" version="1.1" xmlns:xlink="http://www.w3.org/1999/xlink" xmlns:svgjs="http://svgjs.com/svgjs" width="1440" height="560" preserveAspectRatio="none" viewBox="0 0 1440 560"><g mask="url(&quot;#SvgjsMask1000&quot;)" fill="none"><rect width="1440" height="560" x="0" y="0" fill="#0e2a47"></rect><path d="M1032.38-3.83L1019.82-6.34 1019.52-19.14 1006.96-21.66 1006.65-34.46 994.09-36.97 993.79-49.77M1038.51-8.98L1025.95-11.49 1025.64-24.29 1013.08-26.8 1012.78-39.6 1000.22-42.12 999.91-54.92" stroke="#d3b714" stroke-width="1" stroke-dasharray="2, 2"></path><circle r="70.28956057660187" cx="401.94" cy="525.31" fill="#e73635"></circle><rect width="288" height="288" clip-path="url(&quot;#SvgjsClipPath1001&quot;)" x="267.65" y="142.13" fill="url(#SvgjsPattern1002)" transform="rotate(259.45, 411.65, 286.13)"></rect><rect width="204" height="204" clip-path="url(&quot;#SvgjsClipPath1003&quot;)" x="668.55" y="234.21" fill="url(#SvgjsPattern1004)" transform="rotate(275, 770.55, 336.21)"></rect><path d="M1248.09 37.55L1259.21 31.18 1267.85 40.63 1278.97 34.27 1287.62 43.71 1298.73 37.35 1307.38 46.79M1246.86 45.45L1257.97 39.09 1266.62 48.53 1277.73 42.17 1286.38 51.61 1297.5 45.25 1306.14 54.7" stroke="#d3b714" stroke-width="1" stroke-dasharray="3, 3"></path><rect width="103.04" height="103.04" clip-path="url(&quot;#SvgjsClipPath1005&quot;)" x="177.09" y="403.68" fill="url(#SvgjsPattern1006)" transform="rotate(126.85, 228.61, 455.2)"></rect><rect width="156" height="156" clip-path="url(&quot;#SvgjsClipPath1007&quot;)" x="405.21" y="112.34" fill="url(#SvgjsPattern1008)" transform="rotate(16.68, 483.21, 190.34)"></rect><circle r="72.30447747608011" cx="522.98" cy="192.23" stroke="#037b0b" stroke-width="2.53" stroke-dasharray="3, 3"></circle><rect width="130" height="130" clip-path="url(&quot;#SvgjsClipPath1009&quot;)" x="621.36" y="118.5" fill="url(#SvgjsPattern1010)" transform="rotate(310.23, 686.36, 183.5)"></rect><rect width="130.6" height="130.6" clip-path="url(&quot;#SvgjsClipPath1011&quot;)" x="300.13" y="460.7" fill="url(#SvgjsPattern1012)" transform="rotate(331.52, 365.43, 526)"></rect><rect width="153.12" height="153.12" clip-path="url(&quot;#SvgjsClipPath1013&quot;)" x="321.99" y="272.09" fill="url(#SvgjsPattern1014)" transform="rotate(166.75, 398.55, 348.65)"></rect><rect width="72" height="72" clip-path="url(&quot;#SvgjsClipPath1015&quot;)" x="223.93" y="424.27" fill="url(#SvgjsPattern1016)" transform="rotate(177.02, 259.93, 460.27)"></rect></g><defs><mask id="SvgjsMask1000"><rect width="1440" height="560" fill="#ffffff"></rect></mask><pattern x="0" y="0" width="6" height="6" patternUnits="userSpaceOnUse" id="SvgjsPattern1002"><path d="M3 1L3 5M1 3L5 3" stroke="#d3b714" fill="none" stroke-width="1"></path></pattern><clipPath id="SvgjsClipPath1001"><circle r="72" cx="411.65" cy="286.13"></circle></clipPath><pattern x="0" y="0" width="204" height="6" patternUnits="userSpaceOnUse" id="SvgjsPattern1004"><rect width="204" height="3" x="0" y="0" fill="#e73635"></rect><rect width="204" height="3" x="0" y="3" fill="rgba(0, 0, 0, 0)"></rect></pattern><clipPath id="SvgjsClipPath1003"><circle r="51" cx="770.55" cy="336.21"></circle></clipPath><pattern x="0" y="0" width="7.36" height="7.36" patternUnits="userSpaceOnUse" id="SvgjsPattern1006"><path d="M3.68 1L3.68 6.36M1 3.68L6.36 3.68" stroke="#037b0b" fill="none" stroke-width="1"></path></pattern><clipPath id="SvgjsClipPath1005"><circle r="25.76" cx="228.61" cy="455.2"></circle></clipPath><pattern x="0" y="0" width="6" height="6" patternUnits="userSpaceOnUse" id="SvgjsPattern1008"><path d="M3 1L3 5M1 3L5 3" stroke="#037b0b" fill="none" stroke-width="1"></path></pattern><clipPath id="SvgjsClipPath1007"><circle r="39" cx="483.21" cy="190.34"></circle></clipPath><pattern x="0" y="0" width="130" height="13" patternUnits="userSpaceOnUse" id="SvgjsPattern1010"><rect width="130" height="6.5" x="0" y="0" fill="#e73635"></rect><rect width="130" height="6.5" x="0" y="6.5" fill="rgba(0, 0, 0, 0)"></rect></pattern><clipPath id="SvgjsClipPath1009"><circle r="32.5" cx="686.36" cy="183.5"></circle></clipPath><pattern x="0" y="0" width="13.06" height="13.06" patternUnits="userSpaceOnUse" id="SvgjsPattern1012"><path d="M0 13.06L6.53 0L13.06 13.06" stroke="#e73635" fill="none"></path></pattern><clipPath id="SvgjsClipPath1011"><circle r="32.65" cx="365.43" cy="526"></circle></clipPath><pattern x="0" y="0" width="153.12" height="12.76" patternUnits="userSpaceOnUse" id="SvgjsPattern1014"><rect width="153.12" height="6.38" x="0" y="0" fill="#d3b714"></rect><rect width="153.12" height="6.38" x="0" y="6.38" fill="rgba(0, 0, 0, 0)"></rect></pattern><clipPath id="SvgjsClipPath1013"><circle r="38.28" cx="398.55" cy="348.65"></circle></clipPath><pattern x="0" y="0" width="6" height="6" patternUnits="userSpaceOnUse" id="SvgjsPattern1016"><path d="M0 6L3 0L6 6" stroke="#e73635" fill="none"></path></pattern><clipPath id="SvgjsClipPath1015"><circle r="18" cx="259.93" cy="460.27"></circle></clipPath></defs></svg>